<svg width="151" height="78" viewBox="0 0 151 78" fill="none" xmlns="http://www.w3.org/2000/svg">
<path d="M151 63V23.4291C151 18.7477 148.814 14.3348 145.091 11.4976L134.027 3.06852C131.415 1.07801 128.221 0 124.937 0H15C6.71573 0 0 6.71573 0 15V54.7906C0 59.3474 2.07135 63.6571 5.62958 66.5037L15.8913 74.713C18.551 76.8408 21.8556 78 25.2617 78H136C144.284 78 151 71.2843 151 63Z" fill="#18181B"/>
<rect x="16" y="16" width="127" height="54" rx="12" fill="#F4F4F5"/>
<path d="M30.718 41.234C29.1407 41.234 28.352 40.454 28.352 38.894V30.288C28.352 28.7453 29.106 27.974 30.614 27.974C31.3247 27.974 31.8707 28.1733 32.252 28.572C32.6507 28.9707 32.85 29.5427 32.85 30.288V30.366C33.1447 29.6207 33.6213 29.0313 34.28 28.598C34.9387 28.1647 35.7187 27.9393 36.62 27.922C37.1227 27.9047 37.4953 28.0347 37.738 28.312C37.998 28.572 38.1367 29.066 38.154 29.794C38.154 30.418 38.024 30.912 37.764 31.276C37.504 31.64 37.01 31.8567 36.282 31.926L35.684 31.978C34.7653 32.0647 34.098 32.3247 33.682 32.758C33.266 33.174 33.058 33.798 33.058 34.63V38.894C33.058 40.454 32.278 41.234 30.718 41.234ZM45.8709 41.286C44.4496 41.286 43.2103 41.0173 42.1529 40.48C41.0956 39.9427 40.2723 39.1713 39.6829 38.166C39.0936 37.1607 38.7989 35.9733 38.7989 34.604C38.7989 33.2173 39.0936 32.03 39.6829 31.042C40.2723 30.0367 41.0956 29.2653 42.1529 28.728C43.2103 28.1907 44.4496 27.922 45.8709 27.922C47.2923 27.922 48.5316 28.1907 49.5889 28.728C50.6463 29.2653 51.4609 30.0367 52.0329 31.042C52.6223 32.03 52.9169 33.2173 52.9169 34.604C52.9169 35.9733 52.6223 37.1607 52.0329 38.166C51.4609 39.1713 50.6463 39.9427 49.5889 40.48C48.5316 41.0173 47.2923 41.286 45.8709 41.286ZM45.8709 37.88C46.5643 37.88 47.1363 37.62 47.5869 37.1C48.0376 36.58 48.2629 35.748 48.2629 34.604C48.2629 33.4427 48.0376 32.6107 47.5869 32.108C47.1363 31.588 46.5643 31.328 45.8709 31.328C45.1603 31.328 44.5796 31.588 44.1289 32.108C43.6783 32.6107 43.4529 33.4427 43.4529 34.604C43.4529 35.748 43.6783 36.58 44.1289 37.1C44.5796 37.62 45.1603 37.88 45.8709 37.88ZM59.8215 41.286C58.1575 41.286 56.9269 40.8353 56.1295 39.934C55.3495 39.0153 54.9595 37.62 54.9595 35.748V30.288C54.9595 28.7453 55.7309 27.974 57.2735 27.974C58.0189 27.974 58.5909 28.1733 58.9895 28.572C59.3882 28.9707 59.5875 29.5427 59.5875 30.288V35.878C59.5875 37.126 60.1249 37.75 61.1995 37.75C61.8235 37.75 62.3349 37.5247 62.7335 37.074C63.1322 36.6233 63.3315 36.0253 63.3315 35.28V30.288C63.3315 28.7453 64.1029 27.974 65.6455 27.974C66.3909 27.974 66.9629 28.1733 67.3615 28.572C67.7602 28.9707 67.9595 29.5427 67.9595 30.288V38.894C67.9595 40.454 67.2142 41.234 65.7235 41.234C64.3889 41.234 63.6349 40.61 63.4615 39.362C62.6295 40.6447 61.4162 41.286 59.8215 41.286ZM72.9408 41.234C72.1954 41.234 71.6234 41.0347 71.2248 40.636C70.8434 40.2373 70.6528 39.6567 70.6528 38.894V30.288C70.6528 28.7453 71.4068 27.974 72.9148 27.974C74.2841 27.974 75.0294 28.6413 75.1508 29.976C75.5841 29.3173 76.1561 28.8147 76.8668 28.468C77.5948 28.104 78.4008 27.922 79.2848 27.922C80.8101 27.922 81.9368 28.3727 82.6648 29.274C83.4101 30.1753 83.7828 31.562 83.7828 33.434V38.894C83.7828 39.6567 83.5834 40.2373 83.1848 40.636C82.7861 41.0347 82.2141 41.234 81.4688 41.234C80.7234 41.234 80.1514 41.0347 79.7528 40.636C79.3541 40.2373 79.1548 39.6567 79.1548 38.894V33.616C79.1548 32.836 79.0161 32.2813 78.7388 31.952C78.4788 31.6227 78.0888 31.458 77.5688 31.458C76.8754 31.458 76.3208 31.6833 75.9048 32.134C75.4888 32.5673 75.2808 33.1567 75.2808 33.902V38.894C75.2808 40.454 74.5008 41.234 72.9408 41.234ZM91.4124 41.286C90.3204 41.286 89.3497 41.0173 88.5004 40.48C87.6684 39.9427 87.0097 39.1713 86.5244 38.166C86.0564 37.1607 85.8224 35.9733 85.8224 34.604C85.8224 33.2173 86.0564 32.03 86.5244 31.042C87.0097 30.0367 87.6684 29.2653 88.5004 28.728C89.3497 28.1907 90.3204 27.922 91.4124 27.922C92.227 27.922 92.9724 28.0953 93.6484 28.442C94.3417 28.7713 94.8704 29.2047 95.2344 29.742V24.776C95.2344 23.216 96.0057 22.436 97.5484 22.436C98.2937 22.436 98.8657 22.6353 99.2644 23.034C99.663 23.4327 99.8624 24.0133 99.8624 24.776V38.894C99.8624 40.454 99.0997 41.234 97.5744 41.234C96.205 41.234 95.451 40.584 95.3124 39.284C94.9657 39.8907 94.437 40.376 93.7264 40.74C93.033 41.104 92.2617 41.286 91.4124 41.286ZM92.8944 37.88C93.5877 37.88 94.1597 37.62 94.6104 37.1C95.061 36.58 95.2864 35.748 95.2864 34.604C95.2864 33.4427 95.061 32.6107 94.6104 32.108C94.1597 31.588 93.5877 31.328 92.8944 31.328C92.1837 31.328 91.603 31.588 91.1524 32.108C90.7017 32.6107 90.4764 33.4427 90.4764 34.604C90.4764 35.748 90.7017 36.58 91.1524 37.1C91.603 37.62 92.1837 37.88 92.8944 37.88ZM109.511 41.286C107.951 41.286 106.599 41.0173 105.455 40.48C104.329 39.9253 103.462 39.1453 102.855 38.14C102.249 37.1347 101.945 35.9473 101.945 34.578C101.945 33.278 102.231 32.1253 102.803 31.12C103.393 30.1147 104.19 29.3347 105.195 28.78C106.218 28.208 107.379 27.922 108.679 27.922C109.962 27.922 111.071 28.1907 112.007 28.728C112.961 29.2653 113.689 30.0367 114.191 31.042C114.711 32.03 114.971 33.1913 114.971 34.526C114.971 35.202 114.573 35.54 113.775 35.54H106.365C106.521 36.372 106.868 36.97 107.405 37.334C107.943 37.698 108.688 37.88 109.641 37.88C110.005 37.88 110.439 37.8367 110.941 37.75C111.444 37.6633 111.921 37.5247 112.371 37.334C112.926 37.126 113.394 37.126 113.775 37.334C114.157 37.5247 114.408 37.828 114.529 38.244C114.668 38.6427 114.651 39.0587 114.477 39.492C114.321 39.908 114.001 40.2287 113.515 40.454C112.909 40.7487 112.259 40.9567 111.565 41.078C110.889 41.2167 110.205 41.286 109.511 41.286ZM108.887 30.912C108.194 30.912 107.622 31.12 107.171 31.536C106.738 31.952 106.461 32.5587 106.339 33.356H111.175C111.123 32.5413 110.898 31.9347 110.499 31.536C110.118 31.12 109.581 30.912 108.887 30.912ZM121.957 41.286C120.865 41.286 119.895 41.0173 119.045 40.48C118.213 39.9427 117.555 39.1713 117.069 38.166C116.601 37.1607 116.367 35.9733 116.367 34.604C116.367 33.2173 116.601 32.03 117.069 31.042C117.555 30.0367 118.213 29.2653 119.045 28.728C119.895 28.1907 120.865 27.922 121.957 27.922C122.772 27.922 123.517 28.0953 124.193 28.442C124.887 28.7713 125.415 29.2047 125.779 29.742V24.776C125.779 23.216 126.551 22.436 128.093 22.436C128.839 22.436 129.411 22.6353 129.809 23.034C130.208 23.4327 130.407 24.0133 130.407 24.776V38.894C130.407 40.454 129.645 41.234 128.119 41.234C126.75 41.234 125.996 40.584 125.857 39.284C125.511 39.8907 124.982 40.376 124.271 40.74C123.578 41.104 122.807 41.286 121.957 41.286ZM123.439 37.88C124.133 37.88 124.705 37.62 125.155 37.1C125.606 36.58 125.831 35.748 125.831 34.604C125.831 33.4427 125.606 32.6107 125.155 32.108C124.705 31.588 124.133 31.328 123.439 31.328C122.729 31.328 122.148 31.588 121.697 32.108C121.247 32.6107 121.021 33.4427 121.021 34.604C121.021 35.748 121.247 36.58 121.697 37.1C122.148 37.62 122.729 37.88 123.439 37.88Z" fill="#18181B"/>
<path d="M34.878 62.286C33.4393 62.286 32.1827 62.0173 31.108 61.48C30.0507 60.9427 29.2273 60.1713 28.638 59.166C28.0487 58.1607 27.754 56.9647 27.754 55.578C27.754 54.1913 28.0487 53.004 28.638 52.016C29.2273 51.0107 30.0507 50.248 31.108 49.728C32.1827 49.1907 33.4393 48.922 34.878 48.922C35.3807 48.922 35.9093 48.974 36.464 49.078C37.0187 49.1647 37.5907 49.338 38.18 49.598C38.5787 49.754 38.8647 49.9967 39.038 50.326C39.2113 50.638 39.2807 50.976 39.246 51.34C39.2287 51.704 39.1247 52.0333 38.934 52.328C38.7607 52.6227 38.5093 52.822 38.18 52.926C37.868 53.03 37.5127 52.9867 37.114 52.796C36.542 52.536 35.9613 52.406 35.372 52.406C34.4533 52.406 33.7427 52.6833 33.24 53.238C32.7373 53.7927 32.486 54.5727 32.486 55.578C32.486 56.6007 32.7373 57.398 33.24 57.97C33.7427 58.5247 34.4533 58.802 35.372 58.802C35.6493 58.802 35.9353 58.776 36.23 58.724C36.5247 58.6547 36.8193 58.5507 37.114 58.412C37.53 58.2213 37.8853 58.1867 38.18 58.308C38.492 58.412 38.7347 58.6113 38.908 58.906C39.0987 59.1833 39.2027 59.504 39.22 59.868C39.2547 60.232 39.1853 60.5787 39.012 60.908C38.8387 61.22 38.544 61.454 38.128 61.61C37.5387 61.87 36.9753 62.0433 36.438 62.13C35.9007 62.234 35.3807 62.286 34.878 62.286ZM47.1658 62.286C45.7445 62.286 44.5052 62.0173 43.4478 61.48C42.3905 60.9427 41.5672 60.1713 40.9778 59.166C40.3885 58.1607 40.0938 56.9733 40.0938 55.604C40.0938 54.2173 40.3885 53.03 40.9778 52.042C41.5672 51.0367 42.3905 50.2653 43.4478 49.728C44.5052 49.1907 45.7445 48.922 47.1658 48.922C48.5872 48.922 49.8265 49.1907 50.8838 49.728C51.9412 50.2653 52.7558 51.0367 53.3278 52.042C53.9172 53.03 54.2118 54.2173 54.2118 55.604C54.2118 56.9733 53.9172 58.1607 53.3278 59.166C52.7558 60.1713 51.9412 60.9427 50.8838 61.48C49.8265 62.0173 48.5872 62.286 47.1658 62.286ZM47.1658 58.88C47.8592 58.88 48.4312 58.62 48.8818 58.1C49.3325 57.58 49.5578 56.748 49.5578 55.604C49.5578 54.4427 49.3325 53.6107 48.8818 53.108C48.4312 52.588 47.8592 52.328 47.1658 52.328C46.4552 52.328 45.8745 52.588 45.4238 53.108C44.9732 53.6107 44.7478 54.4427 44.7478 55.604C44.7478 56.748 44.9732 57.58 45.4238 58.1C45.8745 58.62 46.4552 58.88 47.1658 58.88ZM58.6985 62.234C57.1211 62.234 56.3325 61.454 56.3325 59.894V51.288C56.3325 49.7453 57.0865 48.974 58.5945 48.974C59.3051 48.974 59.8511 49.1733 60.2325 49.572C60.6311 49.9707 60.8305 50.5427 60.8305 51.288V51.366C61.1251 50.6207 61.6018 50.0313 62.2605 49.598C62.9191 49.1647 63.6991 48.9393 64.6005 48.922C65.1031 48.9047 65.4758 49.0347 65.7185 49.312C65.9785 49.572 66.1171 50.066 66.1345 50.794C66.1345 51.418 66.0045 51.912 65.7445 52.276C65.4845 52.64 64.9905 52.8567 64.2625 52.926L63.6645 52.978C62.7458 53.0647 62.0785 53.3247 61.6625 53.758C61.2465 54.174 61.0385 54.798 61.0385 55.63V59.894C61.0385 61.454 60.2585 62.234 58.6985 62.234ZM69.8939 62.234C69.1486 62.234 68.5766 62.0347 68.1779 61.636C67.7966 61.2373 67.6059 60.6567 67.6059 59.894V51.288C67.6059 49.7453 68.3599 48.974 69.8679 48.974C71.2372 48.974 71.9826 49.6413 72.1039 50.976C72.5372 50.3173 73.1092 49.8147 73.8199 49.468C74.5479 49.104 75.3539 48.922 76.2379 48.922C77.7632 48.922 78.8899 49.3727 79.6179 50.274C80.3632 51.1753 80.7359 52.562 80.7359 54.434V59.894C80.7359 60.6567 80.5366 61.2373 80.1379 61.636C79.7392 62.0347 79.1672 62.234 78.4219 62.234C77.6766 62.234 77.1046 62.0347 76.7059 61.636C76.3072 61.2373 76.1079 60.6567 76.1079 59.894V54.616C76.1079 53.836 75.9692 53.2813 75.6919 52.952C75.4319 52.6227 75.0419 52.458 74.5219 52.458C73.8286 52.458 73.2739 52.6833 72.8579 53.134C72.4419 53.5673 72.2339 54.1567 72.2339 54.902V59.894C72.2339 61.454 71.4539 62.234 69.8939 62.234ZM90.3415 62.286C88.7815 62.286 87.4295 62.0173 86.2855 61.48C85.1588 60.9253 84.2922 60.1453 83.6855 59.14C83.0788 58.1347 82.7755 56.9473 82.7755 55.578C82.7755 54.278 83.0615 53.1253 83.6335 52.12C84.2228 51.1147 85.0202 50.3347 86.0255 49.78C87.0482 49.208 88.2095 48.922 89.5095 48.922C90.7922 48.922 91.9015 49.1907 92.8375 49.728C93.7908 50.2653 94.5188 51.0367 95.0215 52.042C95.5415 53.03 95.8015 54.1913 95.8015 55.526C95.8015 56.202 95.4028 56.54 94.6055 56.54H87.1955C87.3515 57.372 87.6982 57.97 88.2355 58.334C88.7728 58.698 89.5182 58.88 90.4715 58.88C90.8355 58.88 91.2688 58.8367 91.7715 58.75C92.2742 58.6633 92.7508 58.5247 93.2015 58.334C93.7562 58.126 94.2242 58.126 94.6055 58.334C94.9868 58.5247 95.2382 58.828 95.3595 59.244C95.4982 59.6427 95.4808 60.0587 95.3075 60.492C95.1515 60.908 94.8308 61.2287 94.3455 61.454C93.7388 61.7487 93.0888 61.9567 92.3955 62.078C91.7195 62.2167 91.0348 62.286 90.3415 62.286ZM89.7175 51.912C89.0242 51.912 88.4522 52.12 88.0015 52.536C87.5682 52.952 87.2908 53.5587 87.1695 54.356H92.0055C91.9535 53.5413 91.7282 52.9347 91.3295 52.536C90.9482 52.12 90.4108 51.912 89.7175 51.912ZM100.161 62.234C98.584 62.234 97.7954 61.454 97.7954 59.894V51.288C97.7954 49.7453 98.5494 48.974 100.057 48.974C100.768 48.974 101.314 49.1733 101.695 49.572C102.094 49.9707 102.293 50.5427 102.293 51.288V51.366C102.588 50.6207 103.065 50.0313 103.723 49.598C104.382 49.1647 105.162 48.9393 106.063 48.922C106.566 48.9047 106.939 49.0347 107.181 49.312C107.441 49.572 107.58 50.066 107.597 50.794C107.597 51.418 107.467 51.912 107.207 52.276C106.947 52.64 106.453 52.8567 105.725 52.926L105.127 52.978C104.209 53.0647 103.541 53.3247 103.125 53.758C102.709 54.174 102.501 54.798 102.501 55.63V59.894C102.501 61.454 101.721 62.234 100.161 62.234Z" fill="#18181B"/>
<path d="M126.931 51.6243C129.056 52.4106 130.118 52.8038 130.118 53.5C130.118 54.1962 129.056 54.5894 126.931 55.3757L125.928 55.7467C125.504 55.9037 125.292 55.9823 125.137 56.137C124.982 56.2918 124.904 56.504 124.747 56.9283L124.376 57.931C123.589 60.056 123.196 61.1185 122.5 61.1185C121.804 61.1185 121.411 60.056 120.624 57.931L120.253 56.9283C120.096 56.504 120.018 56.2918 119.863 56.137C119.708 55.9823 119.496 55.9037 119.072 55.7467L118.069 55.3757C115.944 54.5894 114.882 54.1962 114.882 53.5C114.882 52.8038 115.944 52.4106 118.069 51.6243L119.072 51.2533C119.496 51.0963 119.708 51.0177 119.863 50.863C120.018 50.7082 120.096 50.496 120.253 50.0717L120.624 49.069C121.411 46.944 121.804 45.8815 122.5 45.8815C123.196 45.8815 123.589 46.944 124.376 49.069L124.747 50.0717C124.904 50.496 124.982 50.7082 125.137 50.863C125.292 51.0177 125.504 51.0963 125.928 51.2533L126.931 51.6243Z" fill="#18181B"/>
</svg>
